<svg width="210" height="208" viewBox="0 0 210 208" fill="none" xmlns="http://www.w3.org/2000/svg">
<path d="M0 30C0 13.4315 13.4315 0 30 0H70C86.5685 0 100 13.4315 100 30V94C100 97.3137 97.3137 100 94 100H30C13.4315 100 0 86.5685 0 70V30Z" fill="#404040"/>
<path d="M110 30C110 13.4315 123.431 0 140 0H180C196.569 0 210 13.4315 210 30V70C210 86.5685 196.569 100 180 100H116C112.686 100 110 97.3137 110 94V30Z" fill="#404040"/>
<path d="M0 138C0 121.431 13.4315 108 30 108H94C97.3137 108 100 110.686 100 114V178C100 194.569 86.5685 208 70 208H30C13.4315 208 0 194.569 0 178V138Z" fill="#404040"/>
<path d="M110 114C110 110.686 112.686 108 116 108H180C196.569 108 210 121.431 210 138V178C210 194.569 196.569 208 180 208H140C123.431 208 110 194.569 110 178V114Z" fill="#404040"/>
</svg>
